<svg width="44" height="48" viewBox="0 0 44 48" fill="none" xmlns="http://www.w3.org/2000/svg">
<path d="M0 20.0958C0 8.19495 8.89762 0.5 18.7318 0.5C28.0978 0.5 36.6207 7.47803 37.3936 18.423H42.8258C43.8793 18.423 44.3945 19.7135 43.6452 20.4543L35.9419 28.3165C35.4736 28.7945 34.7476 28.7945 34.2793 28.3165L26.576 20.4543C26.4154 20.2873 26.3064 20.0759 26.2627 19.8463C26.2187 19.6168 26.2419 19.3791 26.3293 19.1628C26.4164 18.9466 26.5638 18.7612 26.7536 18.6297C26.943 18.4981 27.166 18.4263 27.3953 18.423H32.6871C31.9614 10.6325 26.0608 5.27947 18.7318 5.27947C10.8881 5.27947 4.68296 11.4211 4.68296 20.0958C4.68296 25.6878 9.24902 33.096 18.7318 41.938C20.2304 40.5279 21.612 39.1659 22.8764 37.8514C22.4643 37.0219 22.2479 36.1053 22.2441 35.1749C22.2441 33.5906 22.8608 32.071 23.9587 30.9506C25.0563 29.8302 26.5451 29.2007 28.0978 29.2007C29.6504 29.2007 31.1393 29.8302 32.2368 30.9506C33.3347 32.071 33.9515 33.5906 33.9515 35.1749C33.9508 36.0993 33.7392 37.0106 33.3336 37.8365C32.9281 38.6628 32.3398 39.3815 31.6152 39.9356C30.8905 40.4897 30.0493 40.8642 29.1585 41.0292C28.2677 41.1942 27.3513 41.1453 26.4823 40.8865C24.656 42.8461 22.5719 44.8535 20.2772 46.9087C19.3875 47.6971 18.053 47.6971 17.1632 46.9087C5.7368 36.6328 0 27.6952 0 20.0958Z" fill="#DA1212"/>
</svg>
